<svg width="13" height="11" viewBox="0 0 14 12" fill="none" xmlns="http://www.w3.org/2000/svg">
    <path
        d="M6.672 10.22C8.56 10.22 9.568 9.148 9.856 7.532L11.264 7.756C11.04 9.516 9.648 11.628 6.688 11.628C4.192 11.628 2.288 9.996 1.872 7.084H0.512L0.8 6.188H1.792V5.868C1.792 5.756 1.792 5.66 1.792 5.548H0.512L0.8 4.652H1.872C2.288 1.74 4.192 0.108 6.688 0.108C9.664 0.108 11.024 2.22 11.264 3.98L9.856 4.204C9.616 2.652 8.56 1.516 6.672 1.516C5.04 1.516 3.76 2.508 3.424 4.652H7.856L7.584 5.548H3.328V5.868C3.328 5.98 3.328 6.076 3.328 6.188H7.408L7.152 7.084H3.408C3.728 9.388 5.024 10.22 6.672 10.22Z"
        fill="#262B2C" />
</svg>