<svg width="13" height="11" viewBox="0 0 14 12" fill="none" xmlns="http://www.w3.org/2000/svg">
    <path
        d="M3.344 5.228C1.84 5.228 0.768 4.108 0.768 2.668C0.768 1.244 1.84 0.108 3.344 0.108C4.832 0.108 5.888 1.244 5.888 2.668C5.888 4.108 4.832 5.228 3.344 5.228ZM10.56 0.235999L3.264 11.5H1.984L9.28 0.235999H10.56ZM3.328 4.14C4.16 4.14 4.736 3.452 4.736 2.668C4.736 1.884 4.16 1.196 3.328 1.196C2.496 1.196 1.92 1.884 1.92 2.668C1.92 3.452 2.496 4.14 3.328 4.14ZM9.232 11.628C7.728 11.628 6.656 10.508 6.656 9.068C6.656 7.644 7.728 6.508 9.232 6.508C10.72 6.508 11.776 7.644 11.776 9.068C11.776 10.508 10.72 11.628 9.232 11.628ZM9.216 10.54C10.048 10.54 10.624 9.852 10.624 9.068C10.624 8.284 10.048 7.596 9.216 7.596C8.384 7.596 7.808 8.284 7.808 9.068C7.808 9.852 8.384 10.54 9.216 10.54Z"
        fill="#262B2C" />
</svg>