<svg width="13" height="13" viewBox="0 0 14 14" fill="none" xmlns="http://www.w3.org/2000/svg">
<path d="M6.875 0.5C5.58942 0.5 4.33272 0.881218 3.2638 1.59545C2.19488 2.30968 1.36176 3.32484 0.869786 4.51256C0.377816 5.70028 0.249095 7.00721 0.499899 8.26809C0.750703 9.52896 1.36977 10.6872 2.27881 11.5962C3.18785 12.5052 4.34604 13.1243 5.60692 13.3751C6.86779 13.6259 8.17473 13.4972 9.36244 13.0052C10.5502 12.5132 11.5653 11.6801 12.2796 10.6112C12.9938 9.54229 13.375 8.28558 13.375 7C13.3732 5.27665 12.6878 3.62441 11.4692 2.40582C10.2506 1.18722 8.59835 0.50182 6.875 0.5ZM6.875 12.5C5.78721 12.5 4.72384 12.1774 3.81937 11.5731C2.9149 10.9687 2.20995 10.1098 1.79367 9.10476C1.37738 8.09977 1.26847 6.9939 1.48068 5.927C1.6929 4.86011 2.21673 3.8801 2.98592 3.11091C3.7551 2.34172 4.73511 1.8179 5.80201 1.60568C6.8689 1.39346 7.97477 1.50238 8.97976 1.91866C9.98476 2.33494 10.8437 3.03989 11.4481 3.94436C12.0524 4.84883 12.375 5.9122 12.375 7C12.3733 8.45818 11.7934 9.85617 10.7623 10.8873C9.73117 11.9184 8.33319 12.4983 6.875 12.5Z" fill="#262B2C"/>
</svg>
